@startuml

skinparam dpi 164

skinparam maxMessageSize 184
skinparam wrapWidth 204

skinparam shadowing true

left to right direction

!include ../templates/plantuml/puml-theme-bluegray.puml

skinparam dpi 280

skinparam maxMessageSize 184
skinparam wrapWidth 204

skinparam shadowing true

<style>
' had to override this here as the included theme was not working properly
classDiagram {
  class {
      ' class name
      header {
        FontColor #dedede
        FontSize 12
        FontStyle bold
      }
  }
}
</style>

hide stereotype
hide circle

class "Vision" {
	What are we trying to achieve?
	What is our overall approach to get there?
}

class "Implementation" {
	What are the specific steps we need to take?
	How do we create a deliverable result?
}

class "Delivery" {
	How do we get the deliverable into the hands of our customers?
	What happens after delivery?
}

"Vision" --> "Implementation" : directs
"Implementation" --> "Delivery" : enables
@enduml

@enduml